<svg width="640" height="22" viewBox="0 0 640 22" fill="none" xmlns="http://www.w3.org/2000/svg">
<path fill-rule="evenodd" clip-rule="evenodd" d="M3.46494 21.6561H0.341519C0.153459 21.6561 0 21.5011 0 21.3112V0.520027C0 0.330168 0.153459 0.175236 0.341519 0.175236H3.46494C3.65304 0.175236 3.80648 0.330168 3.80648 0.520027V21.3112C3.80648 21.5011 3.65304 21.6561 3.46494 21.6561ZM17.5904 7.83481V21.3112C17.5904 21.5011 17.4369 21.6561 17.2488 21.6561H14.1254C13.9374 21.6561 13.7839 21.5011 13.7839 21.3112V0.520027C13.7839 0.330168 13.9374 0.175236 14.1254 0.175236H16.9886C17.107 0.175236 17.2088 0.230501 17.2739 0.330372L26.1619 13.9694V0.520027C26.1619 0.330168 26.3154 0.175236 26.5035 0.175236H29.6269C29.8149 0.175236 29.9684 0.330168 29.9684 0.520027V21.3112C29.9684 21.5011 29.8149 21.6561 29.6269 21.6561H26.7637C26.6452 21.6561 26.5433 21.6005 26.4783 21.5006L17.5904 7.83481ZM43.7523 7.83481V21.3112C43.7523 21.5011 43.5989 21.6561 43.4108 21.6561H40.2873C40.0993 21.6561 39.9459 21.5011 39.9459 21.3112V0.520027C39.9459 0.330168 40.0993 0.175236 40.2873 0.175236H43.1506C43.269 0.175236 43.3707 0.230501 43.4358 0.330372L52.3239 13.9694V0.520027C52.3239 0.330168 52.4773 0.175236 52.6654 0.175236H55.7889C55.9769 0.175236 56.1304 0.330168 56.1304 0.520027V21.3112C56.1304 21.5011 55.9769 21.6561 55.7889 21.6561H52.9257C52.8071 21.6561 52.7053 21.6005 52.6402 21.5006L43.7523 7.83481ZM69.9143 3.69736V9.08142H78.1333C78.3214 9.08142 78.4748 9.23637 78.4748 9.42629V12.2297C78.4748 12.4197 78.3214 12.5747 78.1333 12.5747H69.9143V18.1339H79.6082C79.7963 18.1339 79.9497 18.2889 79.9497 18.4788V21.3112C79.9497 21.5011 79.7963 21.6561 79.6082 21.6561H66.4493C66.2613 21.6561 66.1078 21.5011 66.1078 21.3112V0.520027C66.1078 0.330168 66.2613 0.175236 66.4493 0.175236H79.6082C79.7963 0.175236 79.9497 0.330168 79.9497 0.520027V3.35252C79.9497 3.54253 79.7963 3.69736 79.6082 3.69736H69.9143ZM95.9864 12.8958H92.6347V21.3112C92.6347 21.5011 92.4813 21.6561 92.2932 21.6561H89.1698C88.9817 21.6561 88.8283 21.5011 88.8283 21.3112V0.520027C88.8283 0.330168 88.9817 0.175236 89.1698 0.175236H97.1518C99.211 0.175236 101.225 0.873497 102.545 2.53162C103.467 3.68933 103.885 5.11976 103.885 6.59391C103.885 8.4415 103.214 10.1356 101.769 11.3064C101.219 11.7521 100.593 12.0895 99.9284 12.3203L104.482 21.152C104.539 21.2619 104.535 21.3842 104.471 21.4901C104.408 21.5962 104.302 21.6561 104.179 21.6561H100.536C100.403 21.6561 100.289 21.5852 100.23 21.4656L95.9864 12.8958ZM113.568 10.6704C112.374 9.56015 111.944 8.02804 111.953 6.41871C111.962 5.07379 112.315 3.76967 113.112 2.67408C114.534 0.716345 116.91 -1.90735e-06 119.218 -1.90735e-06C121.865 -1.90735e-06 123.893 0.623133 125.827 2.45805C125.897 2.52435 125.933 2.60736 125.934 2.70411C125.935 2.80129 125.901 2.88544 125.832 2.95395L123.854 4.93963C123.722 5.07184 123.509 5.07448 123.376 4.94529C122.164 3.76933 120.728 3.43459 119.081 3.43459C117.982 3.43459 116.791 3.73416 116.137 4.70609C115.812 5.18783 115.677 5.75504 115.674 6.3311C115.67 6.94872 115.81 7.58113 116.294 7.99466C116.296 7.99672 116.298 7.99835 116.301 8.00053C116.902 8.54365 117.591 8.73069 118.376 8.85191L120.832 9.23149C122.329 9.46287 123.682 9.81169 124.818 10.8654C126.096 12.0503 126.59 13.6606 126.579 15.3833C126.571 16.6912 126.22 17.9393 125.443 19.0008C123.915 21.0908 121.25 21.8312 118.794 21.8312C115.785 21.8312 113.428 21.1651 111.282 18.9854C111.15 18.8512 111.152 18.6321 111.285 18.4978L113.351 16.4245C113.485 16.2903 113.702 16.2903 113.834 16.4245C115.262 17.8752 116.881 18.3383 118.874 18.3383C120.779 18.3383 122.787 17.7215 122.801 15.4709C122.805 14.7658 122.676 14.0501 122.123 13.5729C122.121 13.5711 122.12 13.5697 122.118 13.568C121.556 13.0615 120.772 12.8805 120.045 12.7756L117.618 12.425C117.617 12.4248 117.615 12.4248 117.614 12.4245C116.161 12.1966 114.644 11.7263 113.568 10.6704ZM139.249 3.69736L139.216 9.08142H147.435C147.623 9.08142 147.775 9.23637 147.774 9.42629L147.757 12.2297C147.756 12.4197 147.602 12.5747 147.414 12.5747H139.195L139.16 18.1339H148.854C149.042 18.1339 149.195 18.2889 149.194 18.4788L149.176 21.3112C149.175 21.5011 149.021 21.6561 148.833 21.6561H135.674C135.486 21.6561 135.333 21.5011 135.335 21.3112L135.462 0.520027C135.463 0.330168 135.618 0.175236 135.806 0.175236H148.965C149.153 0.175236 149.305 0.330168 149.304 0.520027L149.287 3.35252C149.285 3.54253 149.131 3.69736 148.943 3.69736H139.249ZM161.944 7.83481L161.861 21.3112C161.86 21.5011 161.706 21.6561 161.518 21.6561H158.394C158.206 21.6561 158.054 21.5011 158.055 21.3112L158.182 0.520027C158.184 0.330168 158.338 0.175236 158.526 0.175236H161.389C161.508 0.175236 161.609 0.230501 161.674 0.330372L170.478 13.9694L170.561 0.520027C170.562 0.330168 170.716 0.175236 170.904 0.175236H174.027C174.216 0.175236 174.368 0.330168 174.367 0.520027L174.239 21.3112C174.238 21.5011 174.084 21.6561 173.896 21.6561H171.033C170.914 21.6561 170.813 21.6005 170.748 21.5006L161.944 7.83481ZM184.795 10.6704C183.601 9.56015 183.17 8.02804 183.18 6.41871C183.189 5.07379 183.542 3.76967 184.338 2.67408C185.761 0.716345 188.137 -1.90735e-06 190.444 -1.90735e-06C193.091 -1.90735e-06 195.12 0.623133 197.054 2.45805C197.124 2.52435 197.16 2.60736 197.161 2.70411C197.162 2.80129 197.127 2.88544 197.059 2.95395L195.08 4.93963C194.949 5.07184 194.736 5.07448 194.603 4.94529C193.39 3.76933 191.955 3.43459 190.308 3.43459C189.208 3.43459 188.018 3.73416 187.364 4.70609C187.039 5.18783 186.904 5.75504 186.9 6.3311C186.897 6.94872 187.037 7.58113 187.521 7.99466C187.523 7.99672 187.525 7.99835 187.528 8.00053C188.129 8.54365 188.818 8.73069 189.603 8.85191L192.059 9.23149C193.556 9.46287 194.908 9.81169 196.045 10.8654C197.323 12.0503 197.816 13.6606 197.806 15.3833C197.798 16.6912 197.446 17.9393 196.67 19.0008C195.142 21.0908 192.477 21.8312 190.021 21.8312C187.012 21.8312 184.655 21.1651 182.509 18.9854C182.377 18.8512 182.378 18.6321 182.512 18.4978L184.578 16.4245C184.712 16.2903 184.929 16.2903 185.061 16.4245C186.489 17.8752 188.107 18.3383 190.1 18.3383C192.006 18.3383 194.014 17.7215 194.028 15.4709C194.032 14.7658 193.903 14.0501 193.35 13.5729C193.348 13.5711 193.346 13.5697 193.344 13.568C192.783 13.0615 191.999 12.8805 191.272 12.7756L188.845 12.425C188.843 12.4248 188.842 12.4248 188.841 12.4245C187.388 12.1966 185.871 11.7263 184.794 10.6704H184.795ZM210.476 3.69736L210.443 9.08142H218.662C218.85 9.08142 219.002 9.23637 219.001 9.42629L218.984 12.2297C218.983 12.4197 218.828 12.5747 218.64 12.5747H210.421L210.387 18.1339H220.081C220.269 18.1339 220.422 18.2889 220.42 18.4788L220.403 21.3112C220.402 21.5011 220.248 21.6561 220.06 21.6561H206.901C206.713 21.6561 206.56 21.5011 206.561 21.3112L206.689 0.520027C206.69 0.330168 206.844 0.175236 207.033 0.175236H220.191C220.379 0.175236 220.532 0.330168 220.531 0.520027L220.513 3.35252C220.512 3.54253 220.358 3.69736 220.17 3.69736H210.476ZM260.676 17.4803H253.037L251.699 21.4231C251.651 21.565 251.525 21.6561 251.376 21.6561H248.05C247.935 21.6561 247.836 21.604 247.77 21.5087C247.704 21.4134 247.69 21.3017 247.73 21.1926L255.278 0.401306C255.328 0.262928 255.453 0.175236 255.598 0.175236H258.115C258.261 0.175236 258.385 0.262928 258.435 0.401306L265.984 21.1926C266.023 21.3017 266.009 21.4134 265.943 21.5087C265.877 21.604 265.778 21.6561 265.663 21.6561H262.337C262.188 21.6561 262.062 21.565 262.014 21.4231L260.676 17.4803ZM277.33 3.69736V9.08142H285.549C285.737 9.08142 285.89 9.23637 285.89 9.42629V12.2297C285.89 12.4197 285.737 12.5747 285.549 12.5747H277.33V18.1339H287.024C287.212 18.1339 287.366 18.2889 287.366 18.4788V21.3112C287.366 21.5011 287.212 21.6561 287.024 21.6561H273.865C273.677 21.6561 273.524 21.5011 273.524 21.3112V0.520027C273.524 0.330168 273.677 0.175236 273.865 0.175236H287.024C287.212 0.175236 287.366 0.330168 287.366 0.520027V3.35252C287.366 3.54253 287.212 3.69736 287.024 3.69736H277.33ZM296.756 10.6704C295.556 9.56015 295.116 8.02804 295.116 6.41871C295.116 5.07379 295.462 3.76967 296.251 2.67408C297.662 0.716345 300.034 -1.90735e-06 302.341 -1.90735e-06C304.988 -1.90735e-06 307.021 0.623133 308.965 2.45805C309.036 2.52435 309.072 2.60736 309.074 2.70411C309.075 2.80129 309.042 2.88544 308.974 2.95395L307.007 4.93963C306.876 5.07184 306.664 5.07448 306.53 4.94529C305.31 3.76933 303.872 3.43459 302.225 3.43459C301.126 3.43459 299.937 3.73416 299.289 4.70609C298.967 5.18783 298.836 5.75504 298.836 6.3311C298.836 6.94872 298.98 7.58113 299.466 7.99466C299.469 7.99672 299.471 7.99835 299.473 8.00053C300.078 8.54365 300.768 8.73069 301.554 8.85191L304.012 9.23149C305.51 9.46287 306.865 9.81169 308.008 10.8654C309.293 12.0503 309.797 13.6606 309.797 15.3833C309.797 16.6912 309.453 17.9393 308.683 19.0008C307.168 21.0908 304.507 21.8312 302.052 21.8312C299.042 21.8312 296.681 21.1651 294.522 18.9854C294.389 18.8512 294.389 18.6321 294.522 18.4978L296.575 16.4245C296.708 16.2903 296.925 16.2903 297.058 16.4245C298.495 17.8752 300.116 18.3383 302.109 18.3383C304.015 18.3383 306.019 17.7215 306.019 15.4709C306.019 14.7658 305.886 14.0501 305.33 13.5729C305.328 13.5711 305.326 13.5697 305.324 13.568C304.76 13.0615 303.974 12.8805 303.247 12.7756L300.817 12.425C300.816 12.4248 300.815 12.4248 300.813 12.4245C299.359 12.1966 297.839 11.7263 296.756 10.6704H296.756ZM326.241 3.69736V21.3112C326.241 21.5011 326.088 21.6561 325.9 21.6561H322.776C322.588 21.6561 322.435 21.5011 322.435 21.3112V3.69736H317.108C316.92 3.69736 316.766 3.54253 316.766 3.35252V0.520027C316.766 0.330168 316.92 0.175236 317.108 0.175236H331.568C331.756 0.175236 331.91 0.330168 331.91 0.520027V3.35252C331.91 3.54253 331.756 3.69736 331.568 3.69736H326.241ZM351.547 12.5747H343.872V21.3112C343.872 21.5011 343.718 21.6561 343.53 21.6561H340.407C340.219 21.6561 340.065 21.5011 340.065 21.3112V0.520027C340.065 0.330168 340.219 0.175236 340.407 0.175236H343.53C343.718 0.175236 343.872 0.330168 343.872 0.520027V9.05227H351.547V0.520027C351.547 0.330168 351.7 0.175236 351.888 0.175236H355.012C355.2 0.175236 355.353 0.330168 355.353 0.520027V21.3112C355.353 21.5011 355.2 21.6561 355.012 21.6561H351.888C351.7 21.6561 351.547 21.5011 351.547 21.3112V12.5747ZM369.137 3.69736V9.08142H377.356C377.544 9.08142 377.698 9.23637 377.698 9.42629V12.2297C377.698 12.4197 377.544 12.5747 377.356 12.5747H369.137V18.1339H378.831C379.019 18.1339 379.173 18.2889 379.173 18.4788V21.3112C379.173 21.5011 379.019 21.6561 378.831 21.6561H365.672C365.484 21.6561 365.331 21.5011 365.331 21.3112V0.520027C365.331 0.330168 365.484 0.175236 365.672 0.175236H378.831C379.019 0.175236 379.173 0.330168 379.173 0.520027V3.35252C379.173 3.54253 379.019 3.69736 378.831 3.69736H369.137ZM395.704 3.69736V21.3112C395.704 21.5011 395.551 21.6561 395.362 21.6561H392.239C392.051 21.6561 391.898 21.5011 391.898 21.3112V3.69736H386.571C386.383 3.69736 386.229 3.54253 386.229 3.35252V0.520027C386.229 0.330168 386.383 0.175236 386.571 0.175236H401.031C401.219 0.175236 401.372 0.330168 401.372 0.520027V3.35252C401.372 3.54253 401.219 3.69736 401.031 3.69736H395.704ZM412.993 21.6561H409.869C409.681 21.6561 409.528 21.5011 409.528 21.3112V0.520027C409.528 0.330168 409.681 0.175236 409.869 0.175236H412.993C413.181 0.175236 413.334 0.330168 413.334 0.520027V21.3112C413.334 21.5011 413.181 21.6561 412.993 21.6561ZM437.987 15.1516C437.272 19.2252 434.434 21.8312 430.305 21.8312C428.163 21.8312 426.259 21.1722 424.741 19.6269C424.191 19.066 423.731 18.4508 423.394 17.7363C422.964 16.8266 422.775 15.8492 422.677 14.8521C422.551 13.5578 422.56 12.2161 422.56 10.9157C422.56 9.61515 422.551 8.27354 422.677 6.97916C422.775 5.98216 422.964 5.00483 423.394 4.09505C423.731 3.38061 424.191 2.76527 424.741 2.20452C426.259 0.659132 428.163 -1.90735e-06 430.305 -1.90735e-06C434.449 -1.90735e-06 437.27 2.59233 437.987 6.67965C438.005 6.78367 437.98 6.88047 437.913 6.96131C437.845 7.04239 437.755 7.08482 437.651 7.08482H434.47C434.307 7.08482 434.171 6.97364 434.136 6.81379C433.701 4.80999 432.4 3.49297 430.305 3.49297C429.229 3.49297 428.256 3.87479 427.517 4.66909C427.39 4.80619 427.271 4.95077 427.165 5.10607C426.776 5.67911 426.621 6.34008 426.528 7.01928C426.455 7.55472 426.422 8.10089 426.401 8.64053C426.371 9.39779 426.366 10.1579 426.366 10.9157C426.366 11.6735 426.372 12.4334 426.401 13.1909C426.422 13.7304 426.455 14.2767 426.528 14.812C426.621 15.4912 426.776 16.1524 427.165 16.7253C427.271 16.8805 427.39 17.0251 427.517 17.1622C428.256 17.9564 429.229 18.3383 430.305 18.3383C432.404 18.3383 433.733 17.0163 434.195 15.0133C434.231 14.8551 434.367 14.7466 434.528 14.7466H437.651C437.755 14.7466 437.845 14.789 437.913 14.8698C437.98 14.9508 438.005 15.0477 437.987 15.1516ZM447.268 10.6704C446.067 9.56015 445.627 8.02804 445.627 6.41871C445.627 5.07379 445.973 3.76967 446.763 2.67408C448.173 0.716345 450.545 -1.90735e-06 452.852 -1.90735e-06C455.499 -1.90735e-06 457.532 0.623133 459.477 2.45805C459.547 2.52435 459.583 2.60736 459.585 2.70411C459.587 2.80129 459.553 2.88544 459.485 2.95395L457.518 4.93963C457.387 5.07184 457.175 5.07448 457.041 4.94529C455.821 3.76933 454.384 3.43459 452.736 3.43459C451.637 3.43459 450.449 3.73416 449.8 4.70609C449.478 5.18783 449.347 5.75504 449.347 6.3311C449.347 6.94872 449.491 7.58113 449.977 7.99466C449.98 7.99672 449.982 7.99835 449.984 8.00053C450.589 8.54365 451.279 8.73069 452.065 8.85191L454.523 9.23149C456.021 9.46287 457.376 9.81169 458.519 10.8654C459.805 12.0503 460.308 13.6606 460.308 15.3833C460.308 16.6912 459.964 17.9393 459.194 19.0008C457.679 21.0908 455.018 21.8312 452.563 21.8312C449.553 21.8312 447.192 21.1651 445.033 18.9854C444.9 18.8512 444.9 18.6321 445.033 18.4978L447.087 16.4245C447.22 16.2903 447.437 16.2903 447.57 16.4245C449.006 17.8752 450.628 18.3383 452.621 18.3383C454.526 18.3383 456.53 17.7215 456.53 15.4709C456.53 14.7658 456.397 14.0501 455.841 13.5729C455.839 13.5711 455.837 13.5697 455.835 13.568C455.271 13.0615 454.486 12.8805 453.758 12.7756L451.329 12.425C451.327 12.4248 451.326 12.4248 451.325 12.4245C449.87 12.1966 448.35 11.7263 447.268 10.6704H447.268ZM504.961 8.94802L500.868 17.6917C500.811 17.8152 500.695 17.8891 500.56 17.8891H498.246C498.112 17.8891 497.997 17.8164 497.939 17.6946L493.729 8.91513V21.3112C493.729 21.5011 493.576 21.6561 493.388 21.6561H490.264C490.076 21.6561 489.923 21.5011 489.923 21.3112V0.520027C489.923 0.330168 490.076 0.175236 490.264 0.175236H493.388C493.523 0.175236 493.639 0.249716 493.697 0.373486L499.4 12.6383L504.993 0.375807C505.05 0.250586 505.166 0.175236 505.303 0.175236H508.426C508.614 0.175236 508.768 0.330168 508.768 0.520027V21.3112C508.768 21.5011 508.614 21.6561 508.426 21.6561H505.303C505.115 21.6561 504.961 21.5011 504.961 21.3112V8.94802ZM522.523 3.69736V9.08142H530.742C530.93 9.08142 531.083 9.23637 531.083 9.42629V12.2297C531.083 12.4197 530.93 12.5747 530.742 12.5747H522.523V18.1339H532.217C532.405 18.1339 532.558 18.2889 532.558 18.4788V21.3112C532.558 21.5011 532.405 21.6561 532.217 21.6561H519.058C518.87 21.6561 518.716 21.5011 518.716 21.3112V0.520027C518.716 0.330168 518.87 0.175236 519.058 0.175236H532.217C532.405 0.175236 532.558 0.330168 532.558 0.520027V3.35252C532.558 3.54253 532.405 3.69736 532.217 3.69736H522.523ZM556.754 10.9157C556.754 12.219 556.755 13.5565 556.605 14.8519C556.477 15.9639 556.225 17.0675 555.682 18.0533C555.517 18.3515 555.328 18.6348 555.116 18.9002C553.511 20.9018 551.521 21.6561 549.008 21.6561H541.778C541.59 21.6561 541.437 21.5011 541.437 21.3112V0.520027C541.437 0.330168 541.59 0.175236 541.778 0.175236H549.008C551.521 0.175236 553.511 0.929447 555.116 2.93103C555.328 3.19643 555.517 3.47992 555.682 3.77816C556.225 4.76383 556.477 5.86744 556.605 6.97943C556.755 8.27495 556.754 9.61226 556.754 10.9157ZM569.444 21.6561H566.321C566.132 21.6561 565.979 21.5011 565.979 21.3112V0.520027C565.979 0.330168 566.132 0.175236 566.321 0.175236H569.444C569.632 0.175236 569.785 0.330168 569.785 0.520027V21.3112C569.785 21.5011 569.632 21.6561 569.444 21.6561ZM594.438 15.1516C593.723 19.2252 590.885 21.8312 586.756 21.8312C584.614 21.8312 582.71 21.1722 581.192 19.6269C580.642 19.066 580.182 18.4508 579.845 17.7363C579.415 16.8266 579.226 15.8492 579.128 14.8521C579.002 13.5578 579.011 12.2161 579.011 10.9157C579.011 9.61515 579.002 8.27354 579.128 6.97916C579.226 5.98216 579.415 5.00483 579.845 4.09505C580.182 3.38061 580.642 2.76527 581.192 2.20452C582.71 0.659132 584.614 -1.90735e-06 586.756 -1.90735e-06C590.9 -1.90735e-06 593.721 2.59233 594.438 6.67965C594.457 6.78367 594.431 6.88047 594.364 6.96131C594.297 7.04239 594.207 7.08482 594.102 7.08482H590.921C590.758 7.08482 590.622 6.97364 590.587 6.81379C590.152 4.80999 588.852 3.49297 586.756 3.49297C585.68 3.49297 584.707 3.87479 583.968 4.66909C583.841 4.80619 583.722 4.95077 583.617 5.10607C583.227 5.67911 583.072 6.34008 582.979 7.01928C582.906 7.55472 582.873 8.10089 582.852 8.64053C582.823 9.39779 582.817 10.1579 582.817 10.9157C582.817 11.6735 582.823 12.4334 582.852 13.1909C582.873 13.7304 582.906 14.2767 582.979 14.812C583.072 15.4912 583.227 16.1524 583.617 16.7253C583.722 16.8805 583.841 17.0251 583.968 17.1622C584.707 17.9564 585.68 18.3383 586.756 18.3383C588.856 18.3383 590.184 17.0163 590.646 15.0133C590.682 14.8551 590.818 14.7466 590.979 14.7466H594.102C594.207 14.7466 594.297 14.789 594.364 14.8698C594.431 14.9508 594.457 15.0477 594.438 15.1516ZM613.426 17.4803H605.787L604.449 21.4231C604.401 21.565 604.275 21.6561 604.126 21.6561H600.8C600.685 21.6561 600.586 21.604 600.521 21.5087C600.455 21.4134 600.44 21.3017 600.48 21.1926L608.028 0.401306C608.078 0.262928 608.203 0.175236 608.349 0.175236H610.865C611.011 0.175236 611.135 0.262928 611.185 0.401306L618.734 21.1926C618.773 21.3017 618.759 21.4134 618.693 21.5087C618.627 21.604 618.528 21.6561 618.413 21.6561H615.087C614.939 21.6561 614.812 21.565 614.764 21.4231L613.426 17.4803ZM630.08 18.1339H639.659C639.847 18.1339 640 18.2889 640 18.4788V21.3112C640 21.5011 639.847 21.6561 639.659 21.6561H626.615C626.427 21.6561 626.274 21.5011 626.274 21.3112V0.520027C626.274 0.330168 626.427 0.175236 626.615 0.175236H629.739C629.927 0.175236 630.08 0.330168 630.08 0.520027V18.1339ZM92.6347 3.69736V9.51961H96.9205C98.7338 9.51961 100.078 8.54388 100.078 6.62306C100.078 4.70559 98.7399 3.69736 96.9205 3.69736H92.6347ZM259.575 14.1042L256.924 6.27461L254.201 14.1042H259.575ZM545.243 3.66817V18.1631H548.661C549.932 18.1631 551.081 17.853 551.93 16.8527C551.932 16.8506 551.933 16.8487 551.935 16.8469C552.46 16.2566 552.669 15.4457 552.781 14.6797C552.862 14.1292 552.897 13.5668 552.918 13.0108C552.944 12.3134 552.947 11.6137 552.947 10.9157C552.947 10.2176 552.944 9.51787 552.918 8.82044C552.897 8.26444 552.862 7.70229 552.781 7.15174C552.669 6.38575 552.46 5.57482 551.935 4.98461C551.934 4.98255 551.932 4.98066 551.93 4.97861C551.081 3.97844 549.932 3.66817 548.661 3.66817H545.243ZM612.325 14.1042L609.675 6.27461L606.951 14.1042H612.325Z" fill="#2B2B2A"/>
</svg>
