<svg width="3000" height="988" viewBox="0 0 3000 988" fill="none" xmlns="http://www.w3.org/2000/svg">
<path d="M1322.72 833.621H1409.68L1310.86 371.883H1220.61L1127.06 833.621H1214.02L1232.47 742.064H1302.96L1322.72 833.621ZM1249.6 657.093L1266.72 572.123L1284.51 657.093H1249.6Z" fill="white"/>
<path d="M1738.96 371.883L1657.27 665.656L1573.6 372.541H1572.94V371.883H1487.96V833.621H1572.94V679.489L1617.08 833.621H1698.77L1738.96 688.052V833.621H1823.94V371.883H1738.96Z" fill="white"/>
<path d="M2107.8 562.243C2111.75 553.021 2113.72 543.8 2115.04 535.895C2116.36 528.65 2117.02 521.404 2117.68 514.159C2119.65 487.153 2118.34 458.171 2108.45 432.482C2103.18 419.308 2095.28 405.476 2084.74 395.595C2071.56 383.08 2049.82 377.811 2032.04 375.176C2003.71 371.224 1974.06 372.541 1945.74 372.541C1945.08 372.541 1903.57 372.541 1903.57 372.541V834.28H2030.06C2030.72 834.28 2031.38 834.28 2032.04 834.28C2043.89 834.28 2076.17 831.645 2104.5 805.298C2133.49 778.291 2147.98 737.453 2147.98 683.441C2147.98 618.89 2129.54 582.662 2107.8 562.901V562.243ZM2006.34 454.877C2018.86 454.877 2033.35 465.416 2033.35 495.057C2033.35 527.332 2018.2 539.189 2008.32 539.189H1987.9V455.536L2006.34 454.877ZM2020.84 749.968H1987.9V623.5H2018.2C2038.62 623.5 2062.34 639.309 2062.34 683.441C2062.34 732.183 2037.96 749.968 2021.5 749.968H2020.84Z" fill="white"/>
<path d="M2434.94 457.512V371.883H2216.88V833.621H2434.94V748.651H2301.86V624.159H2395.41V539.189H2301.86V457.512H2434.94Z" fill="white"/>
<path d="M2754.74 516.135C2754.74 420.625 2713.9 371.883 2633.53 371.883H2506.38V833.621H2591.37V674.878H2603.22L2663.17 833.621H2754.08L2689.52 663.022C2745.52 637.992 2754.74 576.734 2754.74 516.135ZM2626.28 592.542H2591.37V454.218H2622.99C2644.73 454.218 2669.76 471.344 2669.76 520.087C2669.76 573.44 2644.07 592.542 2626.28 592.542Z" fill="white"/>
<path d="M2999.34 371.883H2800.39V456.853H2857.7V833.621H2942.69V456.853H3000L2999.34 371.883Z" fill="white"/>
<path d="M320.167 0H0V838.451H84.9826V302.336H325.437C482.886 301.019 613.324 282.576 613.324 144.252C613.324 0.658689 417.667 0.658676 320.826 0.658676L320.167 0ZM299.745 218.025H85.6414V85.629H320.826C379.457 85.629 529 85.629 529 144.911C529 179.162 534.929 218.025 299.745 218.025Z" fill="white"/>
<path d="M1067.94 148.891H982.955V987.342H1556.75V902.371H1067.94V148.891Z" fill="white"/>
<path d="M370.673 460.943V375.313H152.617V837.052H370.673V752.081H237.6V627.59H331.147V542.619H237.6V460.943H370.673Z" fill="white"/>
<path d="M626.918 375.313H427.967V460.284H485.281V837.052H570.263V460.284H627.577L626.918 375.313Z" fill="white"/>
<path d="M905.932 460.943V375.313H687.876V837.052H905.932V752.081H772.859V627.59H866.405V542.619H772.859V460.943H905.932Z" fill="white"/>
</svg>
